<svg width="16" height="16" viewBox="0 0 16 16" fill="none" xmlns="http://www.w3.org/2000/svg">
<path fill-rule="evenodd" clip-rule="evenodd" d="M7.91211 15.5004C3.77211 15.5004 0.412109 12.1479 0.412109 8.00037C0.412109 3.86037 3.77211 0.500366 7.91211 0.500366C12.0596 0.500366 15.4121 3.86037 15.4121 8.00037C15.4121 12.1479 12.0596 15.5004 7.91211 15.5004ZM10.3046 10.7828C10.3946 10.8353 10.4921 10.8653 10.5971 10.8653C10.7846 10.8653 10.9721 10.7678 11.0771 10.5878C11.2346 10.3253 11.1521 9.98034 10.8821 9.81534L8.21211 8.22534V4.76034C8.21211 4.44534 7.95711 4.19784 7.64961 4.19784C7.34211 4.19784 7.08711 4.44534 7.08711 4.76034V8.54784C7.08711 8.74284 7.19211 8.92284 7.36461 9.02784L10.3046 10.7828Z" fill="#00878F"/>
</svg>
