<svg width="19" height="10" viewBox="0 0 19 10" fill="none" xmlns="http://www.w3.org/2000/svg">
<rect x="2.67065" y="6.60419" width="3.41195" height="1.11819" transform="rotate(-38.4374 2.67065 6.60419)" fill="#00878F"/>
<rect x="9.73706" y="3.97615" width="1.91255" height="1.11819" transform="rotate(36.2443 9.73706 3.97615)" fill="#00878F"/>
<ellipse cx="1.58455" cy="8.43416" rx="1.50838" ry="1.50838" fill="#00878F"/>
<ellipse cx="7.46089" cy="3.65895" rx="1.50838" ry="1.50838" fill="#00878F"/>
<ellipse cx="12.6077" cy="6.6759" rx="1.50838" ry="1.50838" fill="#CAD7DE"/>
<path fill-rule="evenodd" clip-rule="evenodd" d="M14.1311 0.623446C14.1227 0.373214 14.3188 0.163612 14.5691 0.155286L17.4858 0.058239C17.665 0.0522767 17.8234 0.15115 17.9019 0.299663C17.9462 0.366857 17.9731 0.44669 17.9761 0.533003L18.078 3.44957C18.0868 3.69979 17.891 3.90972 17.6408 3.91846C17.3906 3.9272 17.1806 3.73144 17.1719 3.48122L17.1111 1.74006L14.1154 5.28391L13.2615 4.56205L16.2675 1.00595L14.5992 1.06146C14.349 1.06978 14.1394 0.873678 14.1311 0.623446Z" fill="#CAD7DE"/>
</svg>
