<svg width="10" height="9" viewBox="0 0 10 9" fill="none" xmlns="http://www.w3.org/2000/svg">
<path d="M4.48365 0.211792C4.41137 0.266214 4.35116 0.338203 4.31151 0.423668L3.29737 2.57098L0.953042 2.95245C0.739892 2.98636 0.563625 3.13964 0.499968 3.34747C0.436863 3.55487 0.496434 3.77941 0.653604 3.92813L2.38283 5.55688L2.02145 7.90409C1.98784 8.11797 2.07941 8.33231 2.25713 8.45716C2.43448 8.58114 2.66697 8.59407 2.85713 8.49L4.94005 7.3489L7.06077 8.41814C7.25408 8.51561 7.48632 8.49514 7.65954 8.36471C7.83256 8.23443 7.91662 8.01676 7.87637 7.80403L7.4345 5.47069L9.107 3.78412C9.25939 3.63028 9.31122 3.40327 9.24127 3.19842C9.17035 2.99344 8.98981 2.84638 8.77488 2.81906L6.41921 2.51766L5.33163 0.405791C5.2325 0.213358 5.03299 0.0941937 4.81659 0.0972429C4.694 0.0994671 4.57796 0.140783 4.48369 0.211767L4.48365 0.211792Z" fill="#00878F"/>
</svg>
